<?xml version="1.0" encoding="utf-8"?>
<!-- Generator: Adobe Illustrator 21.1.0, SVG Export Plug-In . SVG Version: 6.00 Build 0)  -->
<svg version="1.1" id="Icon_Set" xmlns="http://www.w3.org/2000/svg" xmlns:xlink="http://www.w3.org/1999/xlink" x="0px" y="0px"
	 viewBox="0 0 512 512" style="enable-background:new 0 0 512 512;" xml:space="preserve">
<style type="text/css">
	.st0{fill:#FFFFFF;}
	.st1{fill:#7DAC51;}
	.st2{fill:#5B7C31;}
	.st3{fill:#463218;}
	.st4{fill:#FEFE71;}
	.st5{fill:#D6CD1E;}
	.st6{fill:#E56823;}
	.st7{fill:#FE8E46;}
	.st8{fill:none;stroke:#FFFFFF;stroke-width:10;stroke-miterlimit:10;}
	.st9{fill:none;stroke:#463218;stroke-width:14;stroke-linecap:round;stroke-linejoin:round;stroke-miterlimit:10;}
	.st10{fill:#FE8D47;}
	.st11{fill:#E56724;}
</style>
<g id="BAMBOO">
	<g>
		<g>
			<g>
				<g>
					<path class="st4" d="M242.1,127.2l5.7-19.2h-33.8h-10.6h-33.8l5.7,19.2c10.7,36.2,10.6,75.2-0.4,111.3l-5.3,17.5h33.8h10.6
						h33.8l-5.3-17.5C231.5,202.4,231.3,163.4,242.1,127.2z"/>
				</g>
			</g>
			<g>
				<g>
					<path class="st4" d="M242.1,275.2l5.7-19.2h-33.8h-10.6h-33.8l5.7,19.2c10.7,36.2,10.6,75.2-0.4,111.3l-5.3,17.5h33.8h10.6
						h33.8l-5.3-17.5C231.5,350.4,231.3,311.4,242.1,275.2z"/>
				</g>
			</g>
		</g>
		<g>
			<g>
				<path class="st5" d="M208.6,108h-5.3h-33.8l5.7,19.2c10.7,36.2,10.6,75.2-0.4,111.3l-5.3,17.5h33.8h5.3V108z"/>
			</g>
		</g>
		<g>
			<g>
				<path class="st5" d="M208.6,256h-5.3h-33.8l5.7,19.2c10.7,36.2,10.6,75.2-0.4,111.3l-5.3,17.5h33.8h5.3V256z"/>
			</g>
		</g>
		<g>
			<g>
				<g>
					<path class="st3" d="M247.8,263h-78.3c-2.2,0-4.3-1.1-5.6-2.8s-1.7-4.1-1.1-6.2l5.3-17.5c10.5-34.5,10.6-72.6,0.4-107.2
						l-5.7-19.2c-0.6-2.1-0.2-4.4,1.1-6.2s3.4-2.8,5.6-2.8h78.3c2.2,0,4.3,1,5.6,2.8s1.7,4.1,1.1,6.2l-5.7,19.2l-6.7-2l6.7,2
						c-10.3,34.6-10.1,72.7,0.4,107.2l5.3,17.5c0.6,2.1,0.2,4.4-1.1,6.2S250,263,247.8,263z M178.9,249h59.4l-2.6-8.5
						c-11.3-37.1-11.4-78.1-0.4-115.3l0,0l3-10.2h-59.6l3,10.2c11,37.2,10.9,78.2-0.4,115.3L178.9,249z"/>
				</g>
			</g>
			<g>
				<g>
					<path class="st3" d="M247.8,411h-78.3c-2.2,0-4.3-1.1-5.6-2.8s-1.7-4.1-1.1-6.2l5.3-17.5c10.5-34.5,10.6-72.6,0.4-107.2
						l-5.7-19.2c-0.6-2.1-0.2-4.4,1.1-6.2s3.4-2.8,5.6-2.8h78.3c2.2,0,4.3,1,5.6,2.8s1.7,4.1,1.1,6.2l-5.7,19.2
						c-10.3,34.6-10.1,72.7,0.4,107.2l5.3,17.5c0.6,2.1,0.2,4.4-1.1,6.2S250,411,247.8,411z M178.9,397h59.4l-2.6-8.5
						c-11.3-37.1-11.4-78.1-0.4-115.3l3-10.2h-59.6l3,10.2c11,37.2,10.9,78.2-0.4,115.3L178.9,397z"/>
				</g>
			</g>
		</g>
	</g>
	<g>
		<g>
			<g>
				<g>
					<path class="st1" d="M147.2,205.7c20.5-10.2,45.7-9.6,66.1,4s31,36.4,29.6,59.3c-20.5,10.2-45.7,9.6-66.1-4
						C156.4,251.5,145.8,228.6,147.2,205.7z"/>
				</g>
			</g>
			<g>
				<g>
					<path class="st2" d="M242.9,269c-20.5,10.2-45.7,9.6-66.1-4c-20.5-13.5-31-36.4-29.6-59.3"/>
				</g>
			</g>
			<g>
				<g>
					<path class="st1" d="M364.8,172.8c-26-13-58-12.1-84,5s-39.3,46.3-37.6,75.3c26,13,58,12.1,84-5
						C353.1,230.9,366.5,201.8,364.8,172.8z"/>
				</g>
			</g>
			<g>
				<g>
					<path class="st2" d="M364.8,172.8c0,0-58-12.1-84,5s-37.6,75.3-37.6,75.3L364.8,172.8z"/>
				</g>
			</g>
			<g>
				<g>
					<path class="st3" d="M280.8,268.9c-13.9,0-27.9-3.2-40.7-9.6c-2.2-1.1-3.7-3.4-3.9-5.9c-1.9-32.4,13.7-63.7,40.7-81.5
						c27-17.9,61.9-20,91-5.5c2.2,1.1,3.7,3.4,3.9,5.9c1.9,32.4-13.7,63.7-40.7,81.5C315.9,263.9,298.4,268.9,280.8,268.9z
						 M250,248.6c23.8,10.3,51.5,8,73.3-6.4c21.7-14.4,34.8-39,34.6-64.9c-23.8-10.3-51.5-8-73.3,6.4
						C262.9,198,249.9,222.6,250,248.6z"/>
				</g>
			</g>
			<g>
				<g>
					<path class="st3" d="M213.3,282.9c-14.1,0-28.2-4.1-40.4-12.1c-21.7-14.4-34.3-39.5-32.7-65.5c0.1-2.5,1.6-4.7,3.9-5.9
						c23.4-11.7,51.4-10,73.1,4.4c21.7,14.4,34.3,39.5,32.7,65.5c-0.1,2.5-1.6,4.7-3.9,5.9C235.7,280.4,224.5,282.9,213.3,282.9z
						 M154.1,210.3c0.2,19.6,10.2,38,26.6,48.9c16.4,10.9,37.3,12.7,55.4,5.3c-0.2-19.6-10.2-38-26.6-48.9
						C193,204.7,172.2,202.8,154.1,210.3z"/>
				</g>
			</g>
		</g>
		<g>
			<g>
				<g>
					<g>
						
							<rect x="279.6" y="217.5" transform="matrix(0.8305 -0.557 0.557 0.8305 -74.2977 205.1343)" class="st0" width="40.7" height="14.2"/>
					</g>
				</g>
			</g>
			<g>
				<g>
					<g>
						
							<rect x="325.7" y="195.1" transform="matrix(0.8305 -0.557 0.557 0.8305 -56.1035 219.97)" class="st0" width="15.5" height="14.2"/>
					</g>
				</g>
			</g>
		</g>
	</g>
</g>
</svg>
